<svg xmlns="http://www.w3.org/2000/svg" width="1400" height="780" viewBox="0 0 1400 780">
  <defs>
    <linearGradient id="bg" x1="0" y1="0" x2="1" y2="1"><stop stop-color="#050505"/><stop offset=".45" stop-color="#4b0711"/><stop offset="1" stop-color="#050505"/></linearGradient>
    <filter id="glow"><feGaussianBlur stdDeviation="7" result="b"/><feMerge><feMergeNode in="b"/><feMergeNode in="SourceGraphic"/></feMerge></filter>
  </defs>
  <rect width="1400" height="780" fill="url(#bg)"/>
  <path d="M80 150 C300 80 520 180 760 95 C980 20 1160 110 1320 60 L1320 610 C1080 690 840 580 620 675 C390 760 190 650 80 720Z" fill="#b11323" opacity=".85"/>
  <path d="M80 560 C320 480 490 590 710 520 C930 450 1110 470 1320 360 L1320 780 L80 780Z" fill="rgba(0,0,0,.58)"/>
  <text x="700" y="425" text-anchor="middle" font-size="210" font-family="Impact, Arial Black, Arial" font-weight="900" fill="#e8e3d8" filter="url(#glow)" letter-spacing="8">SOUL</text>
  <text x="700" y="520" text-anchor="middle" font-size="52" font-family="Arial" font-weight="900" fill="#ff2048" letter-spacing="18">SYNDICATE</text>
  <text x="700" y="650" text-anchor="middle" font-size="28" font-family="Arial" fill="#ddd" letter-spacing="12">RESPECT • LOYALTY • SKILL</text>
</svg>
