<svg xmlns="http://www.w3.org/2000/svg" width="1600" height="900" viewBox="0 0 1600 900">
  <defs>
    <linearGradient id="g" x1="0" y1="0" x2="1" y2="1"><stop stop-color="#020204"/><stop offset=".45" stop-color="#260006"/><stop offset="1" stop-color="#050506"/></linearGradient>
    <radialGradient id="r" cx="70%" cy="25%" r="55%"><stop stop-color="#ee1038" stop-opacity=".55"/><stop offset="1" stop-color="#000" stop-opacity="0"/></radialGradient>
    <filter id="blur"><feGaussianBlur stdDeviation="18"/></filter>
  </defs>
  <rect width="1600" height="900" fill="url(#g)"/>
  <rect width="1600" height="900" fill="url(#r)"/>
  <g opacity=".26">
    <rect x="100" y="120" width="110" height="500" fill="#151515"/><rect x="250" y="60" width="120" height="570" fill="#0d0d10"/><rect x="420" y="160" width="100" height="480" fill="#171717"/><rect x="1100" y="90" width="130" height="560" fill="#141414"/><rect x="1290" y="150" width="120" height="500" fill="#0b0b0d"/>
  </g>
  <g filter="url(#blur)" opacity=".7"><circle cx="800" cy="330" r="210" fill="#a80022"/><circle cx="1140" cy="590" r="150" fill="#ff1238"/></g>
  <g transform="translate(750 150)" opacity=".92">
    <circle cx="0" cy="0" r="110" fill="none" stroke="#ff1238" stroke-width="12"/>
    <path d="M-42 -40 C-5 -74 55 -50 45 -6 C35 36 -30 18 -42 58 C-51 88 8 100 52 60" fill="none" stroke="#ff1238" stroke-width="20" stroke-linecap="round"/>
    <path d="M-50 -125 L0 -180 L50 -125" fill="none" stroke="#ff1238" stroke-width="12" stroke-linejoin="round"/>
  </g>
  <ellipse cx="340" cy="700" rx="210" ry="62" fill="#070707" stroke="#ff1238" stroke-width="6" opacity=".9"/>
  <ellipse cx="1260" cy="700" rx="230" ry="66" fill="#070707" stroke="#ff1238" stroke-width="6" opacity=".9"/>
  <text x="800" y="470" text-anchor="middle" font-size="150" font-family="Impact, Arial Black, Arial" font-weight="900" fill="#f5efe7" letter-spacing="9">SOUL</text>
  <text x="800" y="575" text-anchor="middle" font-size="70" font-family="Georgia, serif" font-weight="900" fill="#d3132f" letter-spacing="22">SYNDICATE</text>
  <text x="800" y="680" text-anchor="middle" font-size="40" font-family="Arial" fill="#fff" letter-spacing="8">ALLIANCE TAG: 【ӢラЯ】</text>
  <text x="800" y="760" text-anchor="middle" font-size="28" font-family="Arial" fill="#ffcad1" letter-spacing="12">RESPECT • LOYALTY • SKILL</text>
</svg>
